<svg width="1023" height="708" viewBox="0 0 1023 708" fill="none" xmlns="http://www.w3.org/2000/svg">
<g filter="url(#filter0_d_1_2567)">
<rect x="6.61694" y="4.5" width="1010" height="695" rx="10" fill="white"/>
<rect x="6.61694" y="4.5" width="1010" height="695" rx="10" stroke="#F5F6F7" stroke-width="2"/>
</g>
<rect width="1010" height="2" transform="translate(6.61694 63.5)" fill="#F5F6F7"/>
<rect width="1010" height="2" transform="translate(6.61694 122.5)" fill="#F5F6F7"/>
<rect width="1010" height="2" transform="translate(6.61694 192.5)" fill="#F5F6F7"/>
<rect width="1010" height="2" transform="translate(6.61694 418.5)" fill="#F5F6F7"/>
<rect width="1010" height="2" transform="translate(6.61694 488.5)" fill="#F5F6F7"/>
<rect width="1010" height="2" transform="translate(6.61694 558.5)" fill="#F5F6F7"/>
<rect width="1010" height="2" transform="translate(6.61694 628.5)" fill="#F5F6F7"/>
<rect width="2" height="695" transform="translate(278.617 4.5)" fill="#F5F6F7"/>
<rect width="2" height="635" transform="translate(338.617 64.5)" fill="#F5F6F7"/>
<rect width="2" height="635" transform="translate(400.617 64.5)" fill="#F5F6F7"/>
<rect width="2" height="635" transform="translate(462.617 64.5)" fill="#F5F6F7"/>
<rect width="2" height="695" transform="translate(524.617 4.5)" fill="#F5F6F7"/>
<rect width="2" height="635" transform="translate(586.617 64.5)" fill="#F5F6F7"/>
<rect width="2" height="635" transform="translate(648.617 64.5)" fill="#F5F6F7"/>
<rect width="2" height="635" transform="translate(710.617 64.5)" fill="#F5F6F7"/>
<rect width="2" height="695" transform="translate(772.617 4.5)" fill="#F5F6F7"/>
<rect width="2" height="635" transform="translate(834.617 64.5)" fill="#F5F6F7"/>
<rect width="2" height="635" transform="translate(896.617 64.5)" fill="#F5F6F7"/>
<rect width="2" height="635" transform="translate(958.617 64.5)" fill="#F5F6F7"/>
<path d="M463.617 159.5H474.617C480.14 159.5 484.617 163.977 484.617 169.5V183.5C484.617 189.023 480.14 193.5 474.617 193.5H414.617C409.094 193.5 404.617 197.977 404.617 203.5V219.5C404.617 225.023 409.094 229.5 414.617 229.5H421.617" stroke="#FFCB33" stroke-width="2" stroke-linecap="round" stroke-linejoin="round"/>
<path d="M683.617 454.5H694.617C700.14 454.5 704.617 458.977 704.617 464.5V479.5C704.617 485.023 700.14 489.5 694.617 489.5H666.617C661.094 489.5 656.617 493.977 656.617 499.5L656.617 514.5C656.617 520.023 661.094 524.5 666.617 524.5H673.617" stroke="#8833FF" stroke-width="2" stroke-linecap="round" stroke-linejoin="round"/>
<path d="M795.617 524.5H806.617C812.14 524.5 816.617 528.977 816.617 534.5V549.5C816.617 555.023 812.14 559.5 806.617 559.5H766.617C761.094 559.5 756.617 563.977 756.617 569.5L756.617 584.5C756.617 590.023 761.094 594.5 766.617 594.5H773.617" stroke="#33BFFF" stroke-width="2" stroke-linecap="round" stroke-linejoin="round"/>
<path d="M889.617 594.5H900.617C906.14 594.5 910.617 598.977 910.617 604.5V619.5C910.617 625.023 906.14 629.5 900.617 629.5H860.617C855.094 629.5 850.617 633.977 850.617 639.5L850.617 654.5C850.617 660.023 855.094 664.5 860.617 664.5H867.617" stroke="#FF6633" stroke-width="2" stroke-linecap="round" stroke-linejoin="round"/>
<path d="M609.617 229.5H620.617C626.14 229.5 630.617 233.977 630.617 239.5V409.5C630.617 415.023 626.14 419.5 620.617 419.5H486.617C481.094 419.5 476.617 423.977 476.617 429.5V444.5C476.617 450.023 481.094 454.5 486.617 454.5H493.617" stroke="#29CC39" stroke-width="2" stroke-linecap="round" stroke-linejoin="round"/>
<rect x="870.617" y="649.5" width="119" height="30" rx="5" fill="#3361FF" fill-opacity="0.05"/>
<rect x="870.617" y="649.5" width="119" height="30" rx="5" stroke="#3361FF" stroke-width="2"/>
<rect x="865.617" y="659.5" width="10" height="10" rx="5" fill="white"/>
<rect x="865.617" y="659.5" width="10" height="10" rx="5" stroke="#3361FF" stroke-width="2"/>
<path d="M898.08 668.5H892.127V667.211L894.869 664.328C895.545 663.559 895.883 662.947 895.883 662.494C895.883 662.127 895.802 661.848 895.642 661.656C895.482 661.465 895.25 661.369 894.945 661.369C894.644 661.369 894.4 661.498 894.213 661.756C894.025 662.01 893.931 662.328 893.931 662.711H891.951C891.951 662.188 892.082 661.705 892.344 661.264C892.605 660.818 892.969 660.471 893.433 660.221C893.898 659.971 894.418 659.846 894.992 659.846C895.914 659.846 896.623 660.059 897.119 660.484C897.619 660.91 897.869 661.521 897.869 662.318C897.869 662.654 897.806 662.982 897.681 663.303C897.556 663.619 897.361 663.953 897.095 664.305C896.834 664.652 896.41 665.119 895.824 665.705L894.722 666.977H898.08V668.5ZM900.881 663.408H901.812C902.551 663.408 902.92 663.047 902.92 662.324C902.92 662.043 902.832 661.814 902.656 661.639C902.48 661.459 902.232 661.369 901.912 661.369C901.65 661.369 901.422 661.445 901.226 661.598C901.035 661.75 900.939 661.939 900.939 662.166H898.965C898.965 661.717 899.09 661.316 899.34 660.965C899.59 660.613 899.935 660.34 900.377 660.145C900.822 659.945 901.31 659.846 901.842 659.846C902.791 659.846 903.537 660.062 904.08 660.496C904.623 660.93 904.894 661.525 904.894 662.283C904.894 662.65 904.781 662.998 904.554 663.326C904.332 663.65 904.006 663.914 903.576 664.117C904.029 664.281 904.385 664.531 904.642 664.867C904.9 665.199 905.029 665.611 905.029 666.104C905.029 666.865 904.736 667.475 904.15 667.932C903.564 668.389 902.795 668.617 901.842 668.617C901.283 668.617 900.763 668.512 900.283 668.301C899.806 668.086 899.445 667.791 899.199 667.416C898.953 667.037 898.83 666.607 898.83 666.127H900.816C900.816 666.389 900.922 666.615 901.133 666.807C901.344 666.998 901.603 667.094 901.912 667.094C902.26 667.094 902.537 666.998 902.744 666.807C902.951 666.611 903.054 666.363 903.054 666.062C903.054 665.633 902.947 665.328 902.732 665.148C902.517 664.969 902.22 664.879 901.842 664.879H900.881V663.408ZM907.279 666.584C907.592 666.584 907.851 666.678 908.058 666.865C908.265 667.049 908.369 667.285 908.369 667.574C908.369 667.863 908.265 668.102 908.058 668.289C907.851 668.473 907.592 668.564 907.279 668.564C906.963 668.564 906.701 668.471 906.494 668.283C906.291 668.096 906.189 667.859 906.189 667.574C906.189 667.289 906.291 667.053 906.494 666.865C906.701 666.678 906.963 666.584 907.279 666.584ZM914.035 668.5H912.054V662.195L910.109 662.764V661.264L913.853 659.969H914.035V668.5ZM920.984 668.5H919.004V662.195L917.058 662.764V661.264L920.802 659.969H920.984V668.5ZM933.066 665.113H926.885V663.566H933.066V665.113ZM941.328 668.5H939.347V662.195L937.402 662.764V661.264L941.146 659.969H941.328V668.5ZM949.853 668.5H943.9V667.211L946.642 664.328C947.318 663.559 947.656 662.947 947.656 662.494C947.656 662.127 947.576 661.848 947.416 661.656C947.256 661.465 947.023 661.369 946.719 661.369C946.418 661.369 946.174 661.498 945.986 661.756C945.799 662.01 945.705 662.328 945.705 662.711H943.724C943.724 662.188 943.855 661.705 944.117 661.264C944.379 660.818 944.742 660.471 945.207 660.221C945.672 659.971 946.191 659.846 946.765 659.846C947.687 659.846 948.396 660.059 948.892 660.484C949.392 660.91 949.642 661.521 949.642 662.318C949.642 662.654 949.58 662.982 949.455 663.303C949.33 663.619 949.135 663.953 948.869 664.305C948.607 664.652 948.183 665.119 947.597 665.705L946.496 666.977H949.853V668.5ZM952.103 666.584C952.416 666.584 952.676 666.678 952.883 666.865C953.09 667.049 953.193 667.285 953.193 667.574C953.193 667.863 953.09 668.102 952.883 668.289C952.676 668.473 952.416 668.564 952.103 668.564C951.787 668.564 951.525 668.471 951.318 668.283C951.115 668.096 951.013 667.859 951.013 667.574C951.013 667.289 951.115 667.053 951.318 666.865C951.525 666.678 951.787 666.584 952.103 666.584ZM958.859 668.5H956.879V662.195L954.933 662.764V661.264L958.677 659.969H958.859V668.5ZM967.385 668.5H961.431V667.211L964.174 664.328C964.849 663.559 965.187 662.947 965.187 662.494C965.187 662.127 965.107 661.848 964.947 661.656C964.787 661.465 964.554 661.369 964.25 661.369C963.949 661.369 963.705 661.498 963.517 661.756C963.33 662.01 963.236 662.328 963.236 662.711H961.256C961.256 662.188 961.386 661.705 961.648 661.264C961.91 660.818 962.273 660.471 962.738 660.221C963.203 659.971 963.722 659.846 964.297 659.846C965.219 659.846 965.927 660.059 966.424 660.484C966.924 660.91 967.174 661.521 967.174 662.318C967.174 662.654 967.111 662.982 966.986 663.303C966.861 663.619 966.666 663.953 966.4 664.305C966.138 664.652 965.715 665.119 965.129 665.705L964.027 666.977H967.385V668.5Z" fill="#6B7A99"/>
<rect x="773.617" y="579.5" width="115" height="30" rx="5" fill="#FF6633" fill-opacity="0.05"/>
<rect x="773.617" y="579.5" width="115" height="30" rx="5" stroke="#FF6633" stroke-width="2"/>
<rect x="768.617" y="589.5" width="10" height="10" rx="5" fill="white"/>
<rect x="768.617" y="589.5" width="10" height="10" rx="5" stroke="#FF6633" stroke-width="2"/>
<rect x="883.617" y="589.5" width="10" height="10" rx="5" fill="white"/>
<rect x="883.617" y="589.5" width="10" height="10" rx="5" stroke="#FF6633" stroke-width="2"/>
<path d="M799.08 598.5H793.127V597.211L795.869 594.328C796.545 593.559 796.883 592.947 796.883 592.494C796.883 592.127 796.802 591.848 796.642 591.656C796.482 591.465 796.25 591.369 795.945 591.369C795.644 591.369 795.4 591.498 795.213 591.756C795.025 592.01 794.931 592.328 794.931 592.711H792.951C792.951 592.188 793.082 591.705 793.344 591.264C793.605 590.818 793.969 590.471 794.433 590.221C794.898 589.971 795.418 589.846 795.992 589.846C796.914 589.846 797.623 590.059 798.119 590.484C798.619 590.91 798.869 591.521 798.869 592.318C798.869 592.654 798.806 592.982 798.681 593.303C798.556 593.619 798.361 593.953 798.095 594.305C797.834 594.652 797.41 595.119 796.824 595.705L795.722 596.977H799.08V598.5ZM801.881 593.408H802.812C803.551 593.408 803.92 593.047 803.92 592.324C803.92 592.043 803.832 591.814 803.656 591.639C803.48 591.459 803.232 591.369 802.912 591.369C802.65 591.369 802.422 591.445 802.226 591.598C802.035 591.75 801.939 591.939 801.939 592.166H799.965C799.965 591.717 800.09 591.316 800.34 590.965C800.59 590.613 800.935 590.34 801.377 590.145C801.822 589.945 802.31 589.846 802.842 589.846C803.791 589.846 804.537 590.062 805.08 590.496C805.623 590.93 805.894 591.525 805.894 592.283C805.894 592.65 805.781 592.998 805.554 593.326C805.332 593.65 805.006 593.914 804.576 594.117C805.029 594.281 805.385 594.531 805.642 594.867C805.9 595.199 806.029 595.611 806.029 596.104C806.029 596.865 805.736 597.475 805.15 597.932C804.564 598.389 803.795 598.617 802.842 598.617C802.283 598.617 801.763 598.512 801.283 598.301C800.806 598.086 800.445 597.791 800.199 597.416C799.953 597.037 799.83 596.607 799.83 596.127H801.816C801.816 596.389 801.922 596.615 802.133 596.807C802.344 596.998 802.603 597.094 802.912 597.094C803.26 597.094 803.537 596.998 803.744 596.807C803.951 596.611 804.054 596.363 804.054 596.062C804.054 595.633 803.947 595.328 803.732 595.148C803.517 594.969 803.22 594.879 802.842 594.879H801.881V593.408ZM808.279 596.584C808.592 596.584 808.851 596.678 809.058 596.865C809.265 597.049 809.369 597.285 809.369 597.574C809.369 597.863 809.265 598.102 809.058 598.289C808.851 598.473 808.592 598.564 808.279 598.564C807.963 598.564 807.701 598.471 807.494 598.283C807.291 598.096 807.189 597.859 807.189 597.574C807.189 597.289 807.291 597.053 807.494 596.865C807.701 596.678 807.963 596.584 808.279 596.584ZM815.035 598.5H813.054V592.195L811.109 592.764V591.264L814.853 589.969H815.035V598.5ZM821.984 598.5H820.004V592.195L818.058 592.764V591.264L821.802 589.969H821.984V598.5ZM834.066 595.113H827.885V593.566H834.066V595.113ZM842.328 598.5H840.347V592.195L838.402 592.764V591.264L842.146 589.969H842.328V598.5ZM850.853 598.5H844.9V597.211L847.642 594.328C848.318 593.559 848.656 592.947 848.656 592.494C848.656 592.127 848.576 591.848 848.416 591.656C848.256 591.465 848.023 591.369 847.719 591.369C847.418 591.369 847.174 591.498 846.986 591.756C846.799 592.01 846.705 592.328 846.705 592.711H844.724C844.724 592.188 844.855 591.705 845.117 591.264C845.379 590.818 845.742 590.471 846.207 590.221C846.672 589.971 847.191 589.846 847.765 589.846C848.687 589.846 849.396 590.059 849.892 590.484C850.392 590.91 850.642 591.521 850.642 592.318C850.642 592.654 850.58 592.982 850.455 593.303C850.33 593.619 850.135 593.953 849.869 594.305C849.607 594.652 849.183 595.119 848.597 595.705L847.496 596.977H850.853V598.5ZM853.103 596.584C853.416 596.584 853.676 596.678 853.883 596.865C854.09 597.049 854.193 597.285 854.193 597.574C854.193 597.863 854.09 598.102 853.883 598.289C853.676 598.473 853.416 598.564 853.103 598.564C852.787 598.564 852.525 598.471 852.318 598.283C852.115 598.096 852.013 597.859 852.013 597.574C852.013 597.289 852.115 597.053 852.318 596.865C852.525 596.678 852.787 596.584 853.103 596.584ZM859.859 598.5H857.879V592.195L855.933 592.764V591.264L859.677 589.969H859.859V598.5ZM868.385 598.5H862.431V597.211L865.174 594.328C865.849 593.559 866.187 592.947 866.187 592.494C866.187 592.127 866.107 591.848 865.947 591.656C865.787 591.465 865.554 591.369 865.25 591.369C864.949 591.369 864.705 591.498 864.517 591.756C864.33 592.01 864.236 592.328 864.236 592.711H862.256C862.256 592.188 862.386 591.705 862.648 591.264C862.91 590.818 863.273 590.471 863.738 590.221C864.203 589.971 864.722 589.846 865.297 589.846C866.219 589.846 866.927 590.059 867.424 590.484C867.924 590.91 868.174 591.521 868.174 592.318C868.174 592.654 868.111 592.982 867.986 593.303C867.861 593.619 867.666 593.953 867.4 594.305C867.138 594.652 866.715 595.119 866.129 595.705L865.027 596.977H868.385V598.5Z" fill="#6B7A99"/>
<rect x="678.617" y="509.5" width="116" height="30" rx="5" fill="#33BFFF" fill-opacity="0.05"/>
<rect x="678.617" y="509.5" width="116" height="30" rx="5" stroke="#33BFFF" stroke-width="2"/>
<rect x="673.617" y="519.5" width="10" height="10" rx="5" fill="white"/>
<rect x="673.617" y="519.5" width="10" height="10" rx="5" stroke="#33BFFF" stroke-width="2"/>
<rect x="789.617" y="519.5" width="10" height="10" rx="5" fill="white"/>
<rect x="789.617" y="519.5" width="10" height="10" rx="5" stroke="#33BFFF" stroke-width="2"/>
<path d="M703.092 528.5H697.138V527.211L699.881 524.328C700.556 523.559 700.894 522.947 700.894 522.494C700.894 522.127 700.814 521.848 700.654 521.656C700.494 521.465 700.261 521.369 699.957 521.369C699.656 521.369 699.412 521.498 699.224 521.756C699.037 522.01 698.943 522.328 698.943 522.711H696.963C696.963 522.188 697.094 521.705 697.355 521.264C697.617 520.818 697.98 520.471 698.445 520.221C698.91 519.971 699.429 519.846 700.004 519.846C700.926 519.846 701.635 520.059 702.131 520.484C702.631 520.91 702.881 521.521 702.881 522.318C702.881 522.654 702.818 522.982 702.693 523.303C702.568 523.619 702.373 523.953 702.107 524.305C701.845 524.652 701.422 525.119 700.836 525.705L699.734 526.977H703.092V528.5ZM705.892 523.408H706.824C707.562 523.408 707.931 523.047 707.931 522.324C707.931 522.043 707.844 521.814 707.668 521.639C707.492 521.459 707.244 521.369 706.924 521.369C706.662 521.369 706.433 521.445 706.238 521.598C706.047 521.75 705.951 521.939 705.951 522.166H703.976C703.976 521.717 704.101 521.316 704.351 520.965C704.601 520.613 704.947 520.34 705.388 520.145C705.834 519.945 706.322 519.846 706.853 519.846C707.802 519.846 708.549 520.062 709.092 520.496C709.635 520.93 709.906 521.525 709.906 522.283C709.906 522.65 709.793 522.998 709.566 523.326C709.344 523.65 709.017 523.914 708.588 524.117C709.041 524.281 709.396 524.531 709.654 524.867C709.912 525.199 710.041 525.611 710.041 526.104C710.041 526.865 709.748 527.475 709.162 527.932C708.576 528.389 707.806 528.617 706.853 528.617C706.295 528.617 705.775 528.512 705.295 528.301C704.818 528.086 704.457 527.791 704.211 527.416C703.965 527.037 703.842 526.607 703.842 526.127H705.828C705.828 526.389 705.933 526.615 706.144 526.807C706.355 526.998 706.615 527.094 706.924 527.094C707.271 527.094 707.549 526.998 707.756 526.807C707.963 526.611 708.066 526.363 708.066 526.062C708.066 525.633 707.959 525.328 707.744 525.148C707.529 524.969 707.232 524.879 706.853 524.879H705.892V523.408ZM712.291 526.584C712.603 526.584 712.863 526.678 713.07 526.865C713.277 527.049 713.381 527.285 713.381 527.574C713.381 527.863 713.277 528.102 713.07 528.289C712.863 528.473 712.603 528.564 712.291 528.564C711.974 528.564 711.713 528.471 711.506 528.283C711.302 528.096 711.201 527.859 711.201 527.574C711.201 527.289 711.302 527.053 711.506 526.865C711.713 526.678 711.974 526.584 712.291 526.584ZM719.047 528.5H717.066V522.195L715.121 522.764V521.264L718.865 519.969H719.047V528.5ZM725.996 528.5H724.015V522.195L722.07 522.764V521.264L725.814 519.969H725.996V528.5ZM738.078 525.113H731.896V523.566H738.078V525.113ZM746.34 528.5H744.359V522.195L742.414 522.764V521.264L746.158 519.969H746.34V528.5ZM754.865 528.5H748.912V527.211L751.654 524.328C752.33 523.559 752.668 522.947 752.668 522.494C752.668 522.127 752.588 521.848 752.427 521.656C752.267 521.465 752.035 521.369 751.73 521.369C751.429 521.369 751.185 521.498 750.998 521.756C750.81 522.01 750.717 522.328 750.717 522.711H748.736C748.736 522.188 748.867 521.705 749.129 521.264C749.39 520.818 749.754 520.471 750.219 520.221C750.683 519.971 751.203 519.846 751.777 519.846C752.699 519.846 753.408 520.059 753.904 520.484C754.404 520.91 754.654 521.521 754.654 522.318C754.654 522.654 754.592 522.982 754.467 523.303C754.342 523.619 754.146 523.953 753.881 524.305C753.619 524.652 753.195 525.119 752.609 525.705L751.508 526.977H754.865V528.5ZM757.115 526.584C757.427 526.584 757.687 526.678 757.894 526.865C758.101 527.049 758.205 527.285 758.205 527.574C758.205 527.863 758.101 528.102 757.894 528.289C757.687 528.473 757.427 528.564 757.115 528.564C756.799 528.564 756.537 528.471 756.33 528.283C756.127 528.096 756.025 527.859 756.025 527.574C756.025 527.289 756.127 527.053 756.33 526.865C756.537 526.678 756.799 526.584 757.115 526.584ZM763.871 528.5H761.89V522.195L759.945 522.764V521.264L763.689 519.969H763.871V528.5ZM772.396 528.5H766.443V527.211L769.185 524.328C769.861 523.559 770.199 522.947 770.199 522.494C770.199 522.127 770.119 521.848 769.959 521.656C769.799 521.465 769.566 521.369 769.261 521.369C768.961 521.369 768.717 521.498 768.529 521.756C768.342 522.01 768.248 522.328 768.248 522.711H766.267C766.267 522.188 766.398 521.705 766.66 521.264C766.922 520.818 767.285 520.471 767.75 520.221C768.215 519.971 768.734 519.846 769.308 519.846C770.23 519.846 770.939 520.059 771.435 520.484C771.935 520.91 772.185 521.521 772.185 522.318C772.185 522.654 772.123 522.982 771.998 523.303C771.873 523.619 771.677 523.953 771.412 524.305C771.15 524.652 770.726 525.119 770.14 525.705L769.039 526.977H772.396V528.5Z" fill="#6B7A99"/>
<rect x="426.617" y="214.5" width="182" height="30" rx="5" fill="#29CC39" fill-opacity="0.05"/>
<rect x="426.617" y="214.5" width="182" height="30" rx="5" stroke="#29CC39" stroke-width="2"/>
<rect x="421.617" y="224.5" width="10" height="10" rx="5" fill="white"/>
<rect x="421.617" y="224.5" width="10" height="10" rx="5" stroke="#29CC39" stroke-width="2"/>
<path d="M456.662 231.232C456.662 230.932 456.554 230.697 456.34 230.529C456.129 230.361 455.756 230.188 455.22 230.008C454.685 229.828 454.248 229.654 453.908 229.486C452.802 228.943 452.25 228.197 452.25 227.248C452.25 226.775 452.386 226.359 452.66 226C452.937 225.637 453.328 225.355 453.832 225.156C454.336 224.953 454.902 224.852 455.531 224.852C456.144 224.852 456.693 224.961 457.177 225.18C457.666 225.398 458.045 225.711 458.314 226.117C458.584 226.52 458.719 226.98 458.719 227.5H456.668C456.668 227.152 456.56 226.883 456.345 226.691C456.135 226.5 455.847 226.404 455.484 226.404C455.117 226.404 454.826 226.486 454.611 226.65C454.4 226.811 454.295 227.016 454.295 227.266C454.295 227.484 454.412 227.684 454.646 227.863C454.881 228.039 455.293 228.223 455.883 228.414C456.472 228.602 456.957 228.805 457.336 229.023C458.258 229.555 458.719 230.287 458.719 231.221C458.719 231.967 458.437 232.553 457.875 232.979C457.312 233.404 456.541 233.617 455.56 233.617C454.869 233.617 454.242 233.494 453.679 233.248C453.121 232.998 452.699 232.658 452.414 232.229C452.133 231.795 451.992 231.297 451.992 230.734H454.054C454.054 231.191 454.172 231.529 454.406 231.748C454.644 231.963 455.029 232.07 455.56 232.07C455.9 232.07 456.168 231.998 456.363 231.854C456.562 231.705 456.662 231.498 456.662 231.232ZM461.982 225.584V227.16H463.025V228.531H461.982V231.432C461.982 231.67 462.025 231.836 462.111 231.93C462.197 232.023 462.367 232.07 462.621 232.07C462.816 232.07 462.98 232.059 463.113 232.035V233.447C462.758 233.561 462.386 233.617 462 233.617C461.32 233.617 460.818 233.457 460.494 233.137C460.17 232.816 460.008 232.33 460.008 231.678V228.531H459.199V227.16H460.008V225.584H461.982ZM467.379 233.5C467.308 233.371 467.246 233.182 467.191 232.932C466.828 233.389 466.32 233.617 465.668 233.617C465.07 233.617 464.562 233.438 464.144 233.078C463.726 232.715 463.517 232.26 463.517 231.713C463.517 231.025 463.771 230.506 464.279 230.154C464.787 229.803 465.525 229.627 466.494 229.627H467.103V229.293C467.103 228.711 466.851 228.42 466.347 228.42C465.879 228.42 465.644 228.65 465.644 229.111H463.67C463.67 228.498 463.929 228 464.449 227.617C464.972 227.234 465.638 227.043 466.447 227.043C467.256 227.043 467.894 227.24 468.363 227.635C468.832 228.029 469.072 228.57 469.084 229.258V232.064C469.092 232.646 469.181 233.092 469.353 233.4V233.5H467.379ZM466.142 232.211C466.388 232.211 466.592 232.158 466.752 232.053C466.916 231.947 467.033 231.828 467.103 231.695V230.682H466.529C465.842 230.682 465.498 230.99 465.498 231.607C465.498 231.787 465.558 231.934 465.679 232.047C465.801 232.156 465.955 232.211 466.142 232.211ZM474.017 228.947L473.367 228.9C472.746 228.9 472.347 229.096 472.172 229.486V233.5H470.197V227.16H472.049L472.113 227.975C472.445 227.354 472.908 227.043 473.502 227.043C473.713 227.043 473.896 227.066 474.052 227.113L474.017 228.947ZM477.322 225.584V227.16H478.365V228.531H477.322V231.432C477.322 231.67 477.365 231.836 477.451 231.93C477.537 232.023 477.707 232.07 477.961 232.07C478.156 232.07 478.32 232.059 478.453 232.035V233.447C478.097 233.561 477.726 233.617 477.34 233.617C476.66 233.617 476.158 233.457 475.834 233.137C475.51 232.816 475.347 232.33 475.347 231.678V228.531H474.539V227.16H475.347V225.584H477.322ZM488.056 233.5H482.103V232.211L484.845 229.328C485.521 228.559 485.859 227.947 485.859 227.494C485.859 227.127 485.779 226.848 485.619 226.656C485.459 226.465 485.226 226.369 484.922 226.369C484.621 226.369 484.377 226.498 484.189 226.756C484.002 227.01 483.908 227.328 483.908 227.711H481.927C481.927 227.188 482.058 226.705 482.32 226.264C482.582 225.818 482.945 225.471 483.41 225.221C483.875 224.971 484.394 224.846 484.969 224.846C485.89 224.846 486.599 225.059 487.095 225.484C487.595 225.91 487.845 226.521 487.845 227.318C487.845 227.654 487.783 227.982 487.658 228.303C487.533 228.619 487.338 228.953 487.072 229.305C486.81 229.652 486.386 230.119 485.801 230.705L484.699 231.977H488.056V233.5ZM490.857 228.408H491.789C492.527 228.408 492.896 228.047 492.896 227.324C492.896 227.043 492.808 226.814 492.633 226.639C492.457 226.459 492.209 226.369 491.888 226.369C491.627 226.369 491.398 226.445 491.203 226.598C491.011 226.75 490.916 226.939 490.916 227.166H488.941C488.941 226.717 489.066 226.316 489.316 225.965C489.566 225.613 489.912 225.34 490.353 225.145C490.799 224.945 491.287 224.846 491.818 224.846C492.767 224.846 493.513 225.062 494.056 225.496C494.599 225.93 494.871 226.525 494.871 227.283C494.871 227.65 494.758 227.998 494.531 228.326C494.308 228.65 493.982 228.914 493.552 229.117C494.006 229.281 494.361 229.531 494.619 229.867C494.877 230.199 495.006 230.611 495.006 231.104C495.006 231.865 494.713 232.475 494.127 232.932C493.541 233.389 492.771 233.617 491.818 233.617C491.26 233.617 490.74 233.512 490.26 233.301C489.783 233.086 489.422 232.791 489.176 232.416C488.929 232.037 488.806 231.607 488.806 231.127H490.793C490.793 231.389 490.898 231.615 491.109 231.807C491.32 231.998 491.58 232.094 491.888 232.094C492.236 232.094 492.513 231.998 492.72 231.807C492.927 231.611 493.031 231.363 493.031 231.062C493.031 230.633 492.924 230.328 492.709 230.148C492.494 229.969 492.197 229.879 491.818 229.879H490.857V228.408ZM497.256 231.584C497.568 231.584 497.828 231.678 498.035 231.865C498.242 232.049 498.345 232.285 498.345 232.574C498.345 232.863 498.242 233.102 498.035 233.289C497.828 233.473 497.568 233.564 497.256 233.564C496.939 233.564 496.677 233.471 496.47 233.283C496.267 233.096 496.166 232.859 496.166 232.574C496.166 232.289 496.267 232.053 496.47 231.865C496.677 231.678 496.939 231.584 497.256 231.584ZM504.011 233.5H502.031V227.195L500.086 227.764V226.264L503.83 224.969H504.011V233.5ZM510.961 233.5H508.98V227.195L507.035 227.764V226.264L510.779 224.969H510.961V233.5ZM523.043 230.113H516.861V228.566H523.043V230.113ZM532.342 229.885H529.107V231.918H532.927V233.5H527.051V224.969H532.939V226.557H529.107V228.355H532.342V229.885ZM535.488 227.16L535.552 227.904C535.99 227.33 536.594 227.043 537.363 227.043C538.023 227.043 538.515 227.24 538.84 227.635C539.168 228.029 539.338 228.623 539.349 229.416V233.5H537.369V229.498C537.369 229.178 537.304 228.943 537.176 228.795C537.047 228.643 536.812 228.566 536.472 228.566C536.086 228.566 535.799 228.719 535.611 229.023V233.5H533.636V227.16H535.488ZM540.199 230.283C540.199 229.279 540.416 228.488 540.849 227.91C541.283 227.332 541.888 227.043 542.666 227.043C543.232 227.043 543.709 227.266 544.095 227.711V224.5H546.076V233.5H544.301L544.201 232.82C543.795 233.352 543.279 233.617 542.654 233.617C541.9 233.617 541.302 233.328 540.861 232.75C540.42 232.172 540.199 231.35 540.199 230.283ZM542.174 230.406C542.174 231.531 542.502 232.094 543.158 232.094C543.595 232.094 543.908 231.91 544.095 231.543V229.129C543.916 228.754 543.607 228.566 543.17 228.566C542.56 228.566 542.23 229.059 542.179 230.043L542.174 230.406ZM554.531 233.5H552.551V227.195L550.605 227.764V226.264L554.349 224.969H554.531V233.5ZM563.056 233.5H557.103V232.211L559.845 229.328C560.521 228.559 560.859 227.947 560.859 227.494C560.859 227.127 560.779 226.848 560.619 226.656C560.459 226.465 560.226 226.369 559.922 226.369C559.621 226.369 559.377 226.498 559.189 226.756C559.002 227.01 558.908 227.328 558.908 227.711H556.927C556.927 227.188 557.058 226.705 557.32 226.264C557.582 225.818 557.945 225.471 558.41 225.221C558.875 224.971 559.394 224.846 559.969 224.846C560.89 224.846 561.599 225.059 562.095 225.484C562.595 225.91 562.845 226.521 562.845 227.318C562.845 227.654 562.783 227.982 562.658 228.303C562.533 228.619 562.338 228.953 562.072 229.305C561.81 229.652 561.386 230.119 560.801 230.705L559.699 231.977H563.056V233.5ZM565.306 231.584C565.619 231.584 565.879 231.678 566.086 231.865C566.293 232.049 566.396 232.285 566.396 232.574C566.396 232.863 566.293 233.102 566.086 233.289C565.879 233.473 565.619 233.564 565.306 233.564C564.99 233.564 564.728 233.471 564.521 233.283C564.318 233.096 564.217 232.859 564.217 232.574C564.217 232.289 564.318 232.053 564.521 231.865C564.728 231.678 564.99 231.584 565.306 231.584ZM572.062 233.5H570.082V227.195L568.136 227.764V226.264L571.881 224.969H572.062V233.5ZM580.588 233.5H574.635V232.211L577.377 229.328C578.052 228.559 578.39 227.947 578.39 227.494C578.39 227.127 578.31 226.848 578.15 226.656C577.99 226.465 577.758 226.369 577.453 226.369C577.152 226.369 576.908 226.498 576.72 226.756C576.533 227.01 576.439 227.328 576.439 227.711H574.459C574.459 227.188 574.59 226.705 574.851 226.264C575.113 225.818 575.476 225.471 575.941 225.221C576.406 224.971 576.926 224.846 577.5 224.846C578.422 224.846 579.131 225.059 579.627 225.484C580.127 225.91 580.377 226.521 580.377 227.318C580.377 227.654 580.314 227.982 580.189 228.303C580.064 228.619 579.869 228.953 579.603 229.305C579.342 229.652 578.918 230.119 578.332 230.705L577.23 231.977H580.588V233.5Z" fill="#6B7A99"/>
<rect x="603.617" y="224.5" width="10" height="10" rx="5" fill="white"/>
<rect x="603.617" y="224.5" width="10" height="10" rx="5" stroke="#29CC39" stroke-width="2"/>
<rect x="498.617" y="439.5" width="182" height="30" rx="5" fill="#8833FF" fill-opacity="0.05"/>
<rect x="498.617" y="439.5" width="182" height="30" rx="5" stroke="#8833FF" stroke-width="2"/>
<rect x="493.617" y="449.5" width="10" height="10" rx="5" fill="white"/>
<rect x="493.617" y="449.5" width="10" height="10" rx="5" stroke="#8833FF" stroke-width="2"/>
<rect x="675.617" y="449.5" width="10" height="10" rx="5" fill="white"/>
<rect x="675.617" y="449.5" width="10" height="10" rx="5" stroke="#8833FF" stroke-width="2"/>
<path d="M528.662 456.232C528.662 455.932 528.554 455.697 528.34 455.529C528.129 455.361 527.756 455.188 527.22 455.008C526.685 454.828 526.248 454.654 525.908 454.486C524.802 453.943 524.25 453.197 524.25 452.248C524.25 451.775 524.386 451.359 524.66 451C524.937 450.637 525.328 450.355 525.832 450.156C526.336 449.953 526.902 449.852 527.531 449.852C528.144 449.852 528.693 449.961 529.177 450.18C529.666 450.398 530.045 450.711 530.314 451.117C530.584 451.52 530.719 451.98 530.719 452.5H528.668C528.668 452.152 528.56 451.883 528.345 451.691C528.135 451.5 527.847 451.404 527.484 451.404C527.117 451.404 526.826 451.486 526.611 451.65C526.4 451.811 526.295 452.016 526.295 452.266C526.295 452.484 526.412 452.684 526.646 452.863C526.881 453.039 527.293 453.223 527.883 453.414C528.472 453.602 528.957 453.805 529.336 454.023C530.258 454.555 530.719 455.287 530.719 456.221C530.719 456.967 530.437 457.553 529.875 457.979C529.312 458.404 528.541 458.617 527.56 458.617C526.869 458.617 526.242 458.494 525.679 458.248C525.121 457.998 524.699 457.658 524.414 457.229C524.133 456.795 523.992 456.297 523.992 455.734H526.054C526.054 456.191 526.172 456.529 526.406 456.748C526.644 456.963 527.029 457.07 527.56 457.07C527.9 457.07 528.168 456.998 528.363 456.854C528.562 456.705 528.662 456.498 528.662 456.232ZM533.982 450.584V452.16H535.025V453.531H533.982V456.432C533.982 456.67 534.025 456.836 534.111 456.93C534.197 457.023 534.367 457.07 534.621 457.07C534.816 457.07 534.98 457.059 535.113 457.035V458.447C534.758 458.561 534.386 458.617 534 458.617C533.32 458.617 532.818 458.457 532.494 458.137C532.17 457.816 532.008 457.33 532.008 456.678V453.531H531.199V452.16H532.008V450.584H533.982ZM539.379 458.5C539.308 458.371 539.246 458.182 539.191 457.932C538.828 458.389 538.32 458.617 537.668 458.617C537.07 458.617 536.562 458.438 536.144 458.078C535.726 457.715 535.517 457.26 535.517 456.713C535.517 456.025 535.771 455.506 536.279 455.154C536.787 454.803 537.525 454.627 538.494 454.627H539.103V454.293C539.103 453.711 538.851 453.42 538.347 453.42C537.879 453.42 537.644 453.65 537.644 454.111H535.67C535.67 453.498 535.929 453 536.449 452.617C536.972 452.234 537.638 452.043 538.447 452.043C539.256 452.043 539.894 452.24 540.363 452.635C540.832 453.029 541.072 453.57 541.084 454.258V457.064C541.092 457.646 541.181 458.092 541.353 458.4V458.5H539.379ZM538.142 457.211C538.388 457.211 538.592 457.158 538.752 457.053C538.916 456.947 539.033 456.828 539.103 456.695V455.682H538.529C537.842 455.682 537.498 455.99 537.498 456.607C537.498 456.787 537.558 456.934 537.679 457.047C537.801 457.156 537.955 457.211 538.142 457.211ZM546.017 453.947L545.367 453.9C544.746 453.9 544.347 454.096 544.172 454.486V458.5H542.197V452.16H544.049L544.113 452.975C544.445 452.354 544.908 452.043 545.502 452.043C545.713 452.043 545.896 452.066 546.052 452.113L546.017 453.947ZM549.322 450.584V452.16H550.365V453.531H549.322V456.432C549.322 456.67 549.365 456.836 549.451 456.93C549.537 457.023 549.707 457.07 549.961 457.07C550.156 457.07 550.32 457.059 550.453 457.035V458.447C550.097 458.561 549.726 458.617 549.34 458.617C548.66 458.617 548.158 458.457 547.834 458.137C547.51 457.816 547.347 457.33 547.347 456.678V453.531H546.539V452.16H547.347V450.584H549.322ZM560.056 458.5H554.103V457.211L556.845 454.328C557.521 453.559 557.859 452.947 557.859 452.494C557.859 452.127 557.779 451.848 557.619 451.656C557.459 451.465 557.226 451.369 556.922 451.369C556.621 451.369 556.377 451.498 556.189 451.756C556.002 452.01 555.908 452.328 555.908 452.711H553.927C553.927 452.188 554.058 451.705 554.32 451.264C554.582 450.818 554.945 450.471 555.41 450.221C555.875 449.971 556.394 449.846 556.969 449.846C557.89 449.846 558.599 450.059 559.095 450.484C559.595 450.91 559.845 451.521 559.845 452.318C559.845 452.654 559.783 452.982 559.658 453.303C559.533 453.619 559.338 453.953 559.072 454.305C558.81 454.652 558.386 455.119 557.801 455.705L556.699 456.977H560.056V458.5ZM562.857 453.408H563.789C564.527 453.408 564.896 453.047 564.896 452.324C564.896 452.043 564.808 451.814 564.633 451.639C564.457 451.459 564.209 451.369 563.888 451.369C563.627 451.369 563.398 451.445 563.203 451.598C563.011 451.75 562.916 451.939 562.916 452.166H560.941C560.941 451.717 561.066 451.316 561.316 450.965C561.566 450.613 561.912 450.34 562.353 450.145C562.799 449.945 563.287 449.846 563.818 449.846C564.767 449.846 565.513 450.062 566.056 450.496C566.599 450.93 566.871 451.525 566.871 452.283C566.871 452.65 566.758 452.998 566.531 453.326C566.308 453.65 565.982 453.914 565.552 454.117C566.006 454.281 566.361 454.531 566.619 454.867C566.877 455.199 567.006 455.611 567.006 456.104C567.006 456.865 566.713 457.475 566.127 457.932C565.541 458.389 564.771 458.617 563.818 458.617C563.26 458.617 562.74 458.512 562.26 458.301C561.783 458.086 561.422 457.791 561.176 457.416C560.929 457.037 560.806 456.607 560.806 456.127H562.793C562.793 456.389 562.898 456.615 563.109 456.807C563.32 456.998 563.58 457.094 563.888 457.094C564.236 457.094 564.513 456.998 564.72 456.807C564.927 456.611 565.031 456.363 565.031 456.062C565.031 455.633 564.924 455.328 564.709 455.148C564.494 454.969 564.197 454.879 563.818 454.879H562.857V453.408ZM569.256 456.584C569.568 456.584 569.828 456.678 570.035 456.865C570.242 457.049 570.345 457.285 570.345 457.574C570.345 457.863 570.242 458.102 570.035 458.289C569.828 458.473 569.568 458.564 569.256 458.564C568.939 458.564 568.677 458.471 568.47 458.283C568.267 458.096 568.166 457.859 568.166 457.574C568.166 457.289 568.267 457.053 568.47 456.865C568.677 456.678 568.939 456.584 569.256 456.584ZM576.011 458.5H574.031V452.195L572.086 452.764V451.264L575.83 449.969H576.011V458.5ZM582.961 458.5H580.98V452.195L579.035 452.764V451.264L582.779 449.969H582.961V458.5ZM595.043 455.113H588.861V453.566H595.043V455.113ZM604.342 454.885H601.107V456.918H604.927V458.5H599.051V449.969H604.939V451.557H601.107V453.355H604.342V454.885ZM607.488 452.16L607.552 452.904C607.99 452.33 608.594 452.043 609.363 452.043C610.023 452.043 610.515 452.24 610.84 452.635C611.168 453.029 611.338 453.623 611.349 454.416V458.5H609.369V454.498C609.369 454.178 609.304 453.943 609.176 453.795C609.047 453.643 608.812 453.566 608.472 453.566C608.086 453.566 607.799 453.719 607.611 454.023V458.5H605.636V452.16H607.488ZM612.199 455.283C612.199 454.279 612.416 453.488 612.849 452.91C613.283 452.332 613.888 452.043 614.666 452.043C615.232 452.043 615.709 452.266 616.095 452.711V449.5H618.076V458.5H616.301L616.201 457.82C615.795 458.352 615.279 458.617 614.654 458.617C613.9 458.617 613.302 458.328 612.861 457.75C612.42 457.172 612.199 456.35 612.199 455.283ZM614.174 455.406C614.174 456.531 614.502 457.094 615.158 457.094C615.595 457.094 615.908 456.91 616.095 456.543V454.129C615.916 453.754 615.607 453.566 615.17 453.566C614.56 453.566 614.23 454.059 614.179 455.043L614.174 455.406ZM626.531 458.5H624.551V452.195L622.605 452.764V451.264L626.349 449.969H626.531V458.5ZM635.056 458.5H629.103V457.211L631.845 454.328C632.521 453.559 632.859 452.947 632.859 452.494C632.859 452.127 632.779 451.848 632.619 451.656C632.459 451.465 632.226 451.369 631.922 451.369C631.621 451.369 631.377 451.498 631.189 451.756C631.002 452.01 630.908 452.328 630.908 452.711H628.927C628.927 452.188 629.058 451.705 629.32 451.264C629.582 450.818 629.945 450.471 630.41 450.221C630.875 449.971 631.394 449.846 631.969 449.846C632.89 449.846 633.599 450.059 634.095 450.484C634.595 450.91 634.845 451.521 634.845 452.318C634.845 452.654 634.783 452.982 634.658 453.303C634.533 453.619 634.338 453.953 634.072 454.305C633.81 454.652 633.386 455.119 632.801 455.705L631.699 456.977H635.056V458.5ZM637.306 456.584C637.619 456.584 637.879 456.678 638.086 456.865C638.293 457.049 638.396 457.285 638.396 457.574C638.396 457.863 638.293 458.102 638.086 458.289C637.879 458.473 637.619 458.564 637.306 458.564C636.99 458.564 636.728 458.471 636.521 458.283C636.318 458.096 636.217 457.859 636.217 457.574C636.217 457.289 636.318 457.053 636.521 456.865C636.728 456.678 636.99 456.584 637.306 456.584ZM644.062 458.5H642.082V452.195L640.136 452.764V451.264L643.881 449.969H644.062V458.5ZM652.588 458.5H646.635V457.211L649.377 454.328C650.052 453.559 650.39 452.947 650.39 452.494C650.39 452.127 650.31 451.848 650.15 451.656C649.99 451.465 649.758 451.369 649.453 451.369C649.152 451.369 648.908 451.498 648.72 451.756C648.533 452.01 648.439 452.328 648.439 452.711H646.459C646.459 452.188 646.59 451.705 646.851 451.264C647.113 450.818 647.476 450.471 647.941 450.221C648.406 449.971 648.926 449.846 649.5 449.846C650.422 449.846 651.131 450.059 651.627 450.484C652.127 450.91 652.377 451.521 652.377 452.318C652.377 452.654 652.314 452.982 652.189 453.303C652.064 453.619 651.869 453.953 651.603 454.305C651.342 454.652 650.918 455.119 650.332 455.705L649.23 456.977H652.588V458.5Z" fill="#6B7A99"/>
<rect x="293.617" y="144.5" width="165" height="30" rx="5" fill="#FFCB33" fill-opacity="0.05"/>
<rect x="293.617" y="144.5" width="165" height="30" rx="5" stroke="#FFCB33" stroke-width="2"/>
<path d="M316.662 161.232C316.662 160.932 316.554 160.697 316.34 160.529C316.129 160.361 315.756 160.188 315.22 160.008C314.685 159.828 314.248 159.654 313.908 159.486C312.802 158.943 312.25 158.197 312.25 157.248C312.25 156.775 312.386 156.359 312.66 156C312.937 155.637 313.328 155.355 313.832 155.156C314.336 154.953 314.902 154.852 315.531 154.852C316.144 154.852 316.693 154.961 317.177 155.18C317.666 155.398 318.045 155.711 318.314 156.117C318.584 156.52 318.719 156.98 318.719 157.5H316.668C316.668 157.152 316.56 156.883 316.345 156.691C316.135 156.5 315.847 156.404 315.484 156.404C315.117 156.404 314.826 156.486 314.611 156.65C314.4 156.811 314.295 157.016 314.295 157.266C314.295 157.484 314.412 157.684 314.646 157.863C314.881 158.039 315.293 158.223 315.883 158.414C316.472 158.602 316.957 158.805 317.336 159.023C318.258 159.555 318.719 160.287 318.719 161.221C318.719 161.967 318.437 162.553 317.875 162.979C317.312 163.404 316.541 163.617 315.56 163.617C314.869 163.617 314.242 163.494 313.679 163.248C313.121 162.998 312.699 162.658 312.414 162.229C312.133 161.795 311.992 161.297 311.992 160.734H314.054C314.054 161.191 314.172 161.529 314.406 161.748C314.644 161.963 315.029 162.07 315.56 162.07C315.9 162.07 316.168 161.998 316.363 161.854C316.562 161.705 316.662 161.498 316.662 161.232ZM321.982 155.584V157.16H323.025V158.531H321.982V161.432C321.982 161.67 322.025 161.836 322.111 161.93C322.197 162.023 322.367 162.07 322.621 162.07C322.816 162.07 322.98 162.059 323.113 162.035V163.447C322.758 163.561 322.386 163.617 322 163.617C321.32 163.617 320.818 163.457 320.494 163.137C320.17 162.816 320.008 162.33 320.008 161.678V158.531H319.199V157.16H320.008V155.584H321.982ZM327.379 163.5C327.308 163.371 327.246 163.182 327.191 162.932C326.828 163.389 326.32 163.617 325.668 163.617C325.07 163.617 324.562 163.438 324.144 163.078C323.726 162.715 323.517 162.26 323.517 161.713C323.517 161.025 323.771 160.506 324.279 160.154C324.787 159.803 325.525 159.627 326.494 159.627H327.103V159.293C327.103 158.711 326.851 158.42 326.347 158.42C325.879 158.42 325.644 158.65 325.644 159.111H323.67C323.67 158.498 323.929 158 324.449 157.617C324.972 157.234 325.638 157.043 326.447 157.043C327.256 157.043 327.894 157.24 328.363 157.635C328.832 158.029 329.072 158.57 329.084 159.258V162.064C329.092 162.646 329.181 163.092 329.353 163.4V163.5H327.379ZM326.142 162.211C326.388 162.211 326.592 162.158 326.752 162.053C326.916 161.947 327.033 161.828 327.103 161.695V160.682H326.529C325.842 160.682 325.498 160.99 325.498 161.607C325.498 161.787 325.558 161.934 325.679 162.047C325.801 162.156 325.955 162.211 326.142 162.211ZM334.017 158.947L333.367 158.9C332.746 158.9 332.347 159.096 332.172 159.486V163.5H330.197V157.16H332.049L332.113 157.975C332.445 157.354 332.908 157.043 333.502 157.043C333.713 157.043 333.896 157.066 334.052 157.113L334.017 158.947ZM337.322 155.584V157.16H338.365V158.531H337.322V161.432C337.322 161.67 337.365 161.836 337.451 161.93C337.537 162.023 337.707 162.07 337.961 162.07C338.156 162.07 338.32 162.059 338.453 162.035V163.447C338.097 163.561 337.726 163.617 337.34 163.617C336.66 163.617 336.158 163.457 335.834 163.137C335.51 162.816 335.347 162.33 335.347 161.678V158.531H334.539V157.16H335.347V155.584H337.322ZM348.027 160.014C348.027 161.166 347.767 162.055 347.248 162.68C346.732 163.305 346.004 163.617 345.062 163.617C344.113 163.617 343.379 163.303 342.859 162.674C342.34 162.045 342.08 161.158 342.08 160.014V158.455C342.08 157.303 342.338 156.414 342.853 155.789C343.373 155.164 344.105 154.852 345.051 154.852C345.996 154.852 346.728 155.166 347.248 155.795C347.767 156.424 348.027 157.312 348.027 158.461V160.014ZM346.052 158.203C346.052 157.59 345.972 157.133 345.812 156.832C345.652 156.527 345.398 156.375 345.051 156.375C344.711 156.375 344.463 156.516 344.306 156.797C344.154 157.078 344.072 157.504 344.06 158.074V160.254C344.06 160.891 344.14 161.357 344.301 161.654C344.461 161.947 344.715 162.094 345.062 162.094C345.398 162.094 345.646 161.951 345.806 161.666C345.967 161.377 346.049 160.926 346.052 160.312V158.203ZM353.429 163.5H351.449V157.195L349.504 157.764V156.264L353.248 154.969H353.429V163.5ZM357.256 161.584C357.568 161.584 357.828 161.678 358.035 161.865C358.242 162.049 358.345 162.285 358.345 162.574C358.345 162.863 358.242 163.102 358.035 163.289C357.828 163.473 357.568 163.564 357.256 163.564C356.939 163.564 356.677 163.471 356.47 163.283C356.267 163.096 356.166 162.859 356.166 162.574C356.166 162.289 356.267 162.053 356.47 161.865C356.677 161.678 356.939 161.584 357.256 161.584ZM364.011 163.5H362.031V157.195L360.086 157.764V156.264L363.83 154.969H364.011V163.5ZM370.961 163.5H368.98V157.195L367.035 157.764V156.264L370.779 154.969H370.961V163.5ZM383.043 160.113H376.861V158.566H383.043V160.113ZM392.342 159.885H389.107V161.918H392.927V163.5H387.051V154.969H392.939V156.557H389.107V158.355H392.342V159.885ZM395.488 157.16L395.552 157.904C395.99 157.33 396.594 157.043 397.363 157.043C398.023 157.043 398.515 157.24 398.84 157.635C399.168 158.029 399.338 158.623 399.349 159.416V163.5H397.369V159.498C397.369 159.178 397.304 158.943 397.176 158.795C397.047 158.643 396.812 158.566 396.472 158.566C396.086 158.566 395.799 158.719 395.611 159.023V163.5H393.636V157.16H395.488ZM400.199 160.283C400.199 159.279 400.416 158.488 400.849 157.91C401.283 157.332 401.888 157.043 402.666 157.043C403.232 157.043 403.709 157.266 404.095 157.711V154.5H406.076V163.5H404.301L404.201 162.82C403.795 163.352 403.279 163.617 402.654 163.617C401.9 163.617 401.302 163.328 400.861 162.75C400.42 162.172 400.199 161.35 400.199 160.283ZM402.174 160.406C402.174 161.531 402.502 162.094 403.158 162.094C403.595 162.094 403.908 161.91 404.095 161.543V159.129C403.916 158.754 403.607 158.566 403.17 158.566C402.56 158.566 402.23 159.059 402.179 160.043L402.174 160.406ZM416.107 163.5H410.154V162.211L412.896 159.328C413.572 158.559 413.91 157.947 413.91 157.494C413.91 157.127 413.83 156.848 413.67 156.656C413.51 156.465 413.277 156.369 412.972 156.369C412.672 156.369 412.427 156.498 412.24 156.756C412.052 157.01 411.959 157.328 411.959 157.711H409.978C409.978 157.188 410.109 156.705 410.371 156.264C410.633 155.818 410.996 155.471 411.461 155.221C411.926 154.971 412.445 154.846 413.019 154.846C413.941 154.846 414.65 155.059 415.146 155.484C415.646 155.91 415.896 156.521 415.896 157.318C415.896 157.654 415.834 157.982 415.709 158.303C415.584 158.619 415.388 158.953 415.123 159.305C414.861 159.652 414.437 160.119 413.851 160.705L412.75 161.977H416.107V163.5ZM423.056 163.5H417.103V162.211L419.845 159.328C420.521 158.559 420.859 157.947 420.859 157.494C420.859 157.127 420.779 156.848 420.619 156.656C420.459 156.465 420.226 156.369 419.922 156.369C419.621 156.369 419.377 156.498 419.189 156.756C419.002 157.01 418.908 157.328 418.908 157.711H416.927C416.927 157.188 417.058 156.705 417.32 156.264C417.582 155.818 417.945 155.471 418.41 155.221C418.875 154.971 419.394 154.846 419.969 154.846C420.89 154.846 421.599 155.059 422.095 155.484C422.595 155.91 422.845 156.521 422.845 157.318C422.845 157.654 422.783 157.982 422.658 158.303C422.533 158.619 422.338 158.953 422.072 159.305C421.81 159.652 421.386 160.119 420.801 160.705L419.699 161.977H423.056V163.5ZM425.306 161.584C425.619 161.584 425.879 161.678 426.086 161.865C426.293 162.049 426.396 162.285 426.396 162.574C426.396 162.863 426.293 163.102 426.086 163.289C425.879 163.473 425.619 163.564 425.306 163.564C424.99 163.564 424.728 163.471 424.521 163.283C424.318 163.096 424.217 162.859 424.217 162.574C424.217 162.289 424.318 162.053 424.521 161.865C424.728 161.678 424.99 161.584 425.306 161.584ZM432.062 163.5H430.082V157.195L428.136 157.764V156.264L431.881 154.969H432.062V163.5ZM439.011 163.5H437.031V157.195L435.086 157.764V156.264L438.83 154.969H439.011V163.5Z" fill="#6B7A99"/>
<rect x="453.617" y="154.5" width="10" height="10" rx="5" fill="white"/>
<rect x="453.617" y="154.5" width="10" height="10" rx="5" stroke="#FFCB33" stroke-width="2"/>
<defs>
<filter id="filter0_d_1_2567" x="0.616943" y="0.5" width="1022" height="707" filterUnits="userSpaceOnUse" color-interpolation-filters="sRGB">
<feFlood flood-opacity="0" result="BackgroundImageFix"/>
<feColorMatrix in="SourceAlpha" type="matrix" values="0 0 0 0 0 0 0 0 0 0 0 0 0 0 0 0 0 0 127 0" result="hardAlpha"/>
<feOffset dy="2"/>
<feGaussianBlur stdDeviation="2.5"/>
<feColorMatrix type="matrix" values="0 0 0 0 0.14902 0 0 0 0 0.2 0 0 0 0 0.301961 0 0 0 0.03 0"/>
<feBlend mode="normal" in2="BackgroundImageFix" result="effect1_dropShadow_1_2567"/>
<feBlend mode="normal" in="SourceGraphic" in2="effect1_dropShadow_1_2567" result="shape"/>
</filter>
</defs>
</svg>
