<svg width="29" height="29" viewBox="0 0 29 29" fill="none" xmlns="http://www.w3.org/2000/svg">
<path fill-rule="evenodd" clip-rule="evenodd" d="M20.7607 13.1863H10.3354L14.8901 8.63165C15.2541 8.26765 15.2541 7.67031 14.8901 7.30631C14.7157 7.13154 14.4789 7.03333 14.2321 7.03333C13.9852 7.03333 13.7484 7.13154 13.5741 7.30631L7.42339 13.457C7.05939 13.821 7.05939 14.409 7.42339 14.773L13.5741 20.9236C13.9381 21.2876 14.5261 21.2876 14.8901 20.9236C15.2541 20.5596 15.2541 19.9716 14.8901 19.6076L10.3354 15.053H20.7607C21.2741 15.053 21.6941 14.633 21.6941 14.1196C21.6941 13.6063 21.2741 13.1863 20.7607 13.1863Z" fill="#C3CAD9"/>
</svg>
