<svg width="26" height="26" viewBox="0 0 26 26" fill="none" xmlns="http://www.w3.org/2000/svg">
<path fill-rule="evenodd" clip-rule="evenodd" d="M16.4502 12.1667C17.8335 12.1667 18.9419 11.05 18.9419 9.66669C18.9419 8.28335 17.8335 7.16669 16.4502 7.16669C15.0669 7.16669 13.9502 8.28335 13.9502 9.66669C13.9502 11.05 15.0669 12.1667 16.4502 12.1667ZM9.78353 12.1667C11.1669 12.1667 12.2752 11.05 12.2752 9.66669C12.2752 8.28335 11.1669 7.16669 9.78353 7.16669C8.4002 7.16669 7.28353 8.28335 7.28353 9.66669C7.28353 11.05 8.4002 12.1667 9.78353 12.1667ZM9.78353 13.8334C7.84186 13.8334 3.9502 14.8084 3.9502 16.75V18C3.9502 18.4584 4.3252 18.8334 4.78353 18.8334H14.7835C15.2419 18.8334 15.6169 18.4584 15.6169 18V16.75C15.6169 14.8084 11.7252 13.8334 9.78353 13.8334ZM16.4502 13.8334C16.2085 13.8334 15.9335 13.85 15.6419 13.875C15.6585 13.8834 15.6669 13.9 15.6752 13.9084C16.6252 14.6 17.2835 15.525 17.2835 16.75V18C17.2835 18.2917 17.2252 18.575 17.1335 18.8334H21.4502C21.9085 18.8334 22.2835 18.4584 22.2835 18V16.75C22.2835 14.8084 18.3919 13.8334 16.4502 13.8334Z" fill="#C3CAD9"/>
</svg>
