<svg width="97" height="43" viewBox="0 0 97 43" fill="none" xmlns="http://www.w3.org/2000/svg">
<g filter="url(#filter0_d_4007_21306)">
<rect x="6.61694" y="4.5" width="84" height="30" rx="5" fill="white"/>
<path fill-rule="evenodd" clip-rule="evenodd" d="M29.217 12.3H18.017C17.137 12.3 16.417 13.02 16.417 13.9V25.1C16.417 25.98 17.137 26.7 18.017 26.7H29.217C30.097 26.7 30.817 25.98 30.817 25.1V13.9C30.817 13.02 30.097 12.3 29.217 12.3ZM22.585 22.932C22.273 23.244 21.769 23.244 21.457 22.932L18.585 20.06C18.4352 19.9105 18.351 19.7076 18.351 19.496C18.351 19.2844 18.4352 19.0815 18.585 18.932C18.897 18.62 19.401 18.62 19.713 18.932L22.017 21.236L27.521 15.732C27.833 15.42 28.337 15.42 28.649 15.732C28.961 16.044 28.961 16.548 28.649 16.86L22.585 22.932Z" fill="#C3CAD9"/>
<path d="M44.821 20.6104C44.821 20.4997 44.8048 20.4004 44.7722 20.3125C44.7397 20.2214 44.6794 20.1367 44.5916 20.0586C44.5037 19.9805 44.3767 19.9023 44.2107 19.8242C44.0479 19.7428 43.8331 19.6582 43.5662 19.5703C43.2537 19.4661 42.9526 19.349 42.6628 19.2188C42.3731 19.0853 42.1143 18.9307 41.8865 18.7549C41.6586 18.5758 41.4779 18.3675 41.3445 18.1299C41.211 17.889 41.1443 17.609 41.1443 17.29C41.1443 16.984 41.2126 16.709 41.3494 16.4648C41.4861 16.2174 41.6765 16.0075 41.9207 15.835C42.1681 15.6592 42.4578 15.5257 42.7898 15.4346C43.1218 15.3402 43.4848 15.293 43.8787 15.293C44.3995 15.293 44.8585 15.3841 45.2556 15.5664C45.656 15.7454 45.9685 16.001 46.1931 16.333C46.421 16.6618 46.5349 17.0508 46.5349 17.5H44.8308C44.8308 17.321 44.7934 17.1631 44.7185 17.0264C44.6469 16.8896 44.5378 16.7822 44.3914 16.7041C44.2449 16.626 44.061 16.5869 43.8396 16.5869C43.6248 16.5869 43.4441 16.6195 43.2976 16.6846C43.1511 16.7497 43.0404 16.8376 42.9656 16.9482C42.8907 17.0557 42.8533 17.1745 42.8533 17.3047C42.8533 17.4121 42.8826 17.5098 42.9412 17.5977C43.003 17.6823 43.0893 17.762 43.2 17.8369C43.3139 17.9118 43.4506 17.9834 43.6101 18.0518C43.7729 18.1201 43.9552 18.1868 44.157 18.252C44.5346 18.3724 44.8699 18.5075 45.1628 18.6572C45.4591 18.8037 45.7081 18.9714 45.9099 19.1602C46.115 19.3457 46.2696 19.5573 46.3738 19.7949C46.4812 20.0326 46.5349 20.3011 46.5349 20.6006C46.5349 20.9196 46.4731 21.2028 46.3494 21.4502C46.2257 21.6976 46.0483 21.9076 45.8171 22.0801C45.586 22.2493 45.3093 22.3779 44.9871 22.4658C44.6648 22.5537 44.3051 22.5977 43.908 22.5977C43.5434 22.5977 43.1837 22.5521 42.8289 22.4609C42.4773 22.3665 42.1583 22.2233 41.8718 22.0312C41.5854 21.8359 41.3559 21.5869 41.1833 21.2842C41.0141 20.9782 40.9294 20.6152 40.9294 20.1953H42.6482C42.6482 20.4036 42.6759 20.5794 42.7312 20.7227C42.7865 20.8659 42.8679 20.9814 42.9753 21.0693C43.0828 21.154 43.2146 21.2158 43.3708 21.2549C43.5271 21.2907 43.7061 21.3086 43.908 21.3086C44.1261 21.3086 44.3018 21.2777 44.4353 21.2158C44.5688 21.1507 44.6664 21.0661 44.7283 20.9619C44.7901 20.8545 44.821 20.7373 44.821 20.6104ZM48.9519 15V22.5H47.3064V15H48.9519ZM48.7566 19.6777L48.3708 19.6875C48.3708 19.3164 48.4164 18.9746 48.5076 18.6621C48.5987 18.3496 48.7289 18.0778 48.8982 17.8467C49.0675 17.6156 49.2709 17.4365 49.5085 17.3096C49.7462 17.1826 50.0098 17.1191 50.2996 17.1191C50.56 17.1191 50.7976 17.1566 51.0125 17.2314C51.2306 17.3063 51.4177 17.4268 51.574 17.5928C51.7335 17.7588 51.8556 17.9753 51.9402 18.2422C52.0281 18.5091 52.072 18.8346 52.072 19.2188V22.5H50.4167V19.209C50.4167 18.9941 50.3858 18.8281 50.324 18.7109C50.2654 18.5905 50.1807 18.5075 50.0701 18.4619C49.9594 18.4131 49.8243 18.3887 49.6648 18.3887C49.4727 18.3887 49.3165 18.4212 49.196 18.4863C49.0756 18.5514 48.9828 18.6426 48.9177 18.7598C48.8559 18.8737 48.8136 19.0088 48.7908 19.165C48.768 19.3213 48.7566 19.4922 48.7566 19.6777ZM52.78 19.9121V19.8096C52.78 19.4222 52.8354 19.0658 52.946 18.7402C53.0567 18.4115 53.2195 18.1266 53.4343 17.8857C53.6492 17.6449 53.9145 17.4577 54.2302 17.3242C54.546 17.1875 54.9106 17.1191 55.324 17.1191C55.7406 17.1191 56.1069 17.1875 56.4226 17.3242C56.7416 17.4577 57.0085 17.6449 57.2234 17.8857C57.4382 18.1266 57.601 18.4115 57.7117 18.7402C57.8223 19.0658 57.8777 19.4222 57.8777 19.8096V19.9121C57.8777 20.2962 57.8223 20.6527 57.7117 20.9814C57.601 21.307 57.4382 21.5918 57.2234 21.8359C57.0085 22.0768 56.7432 22.264 56.4275 22.3975C56.1117 22.5309 55.7472 22.5977 55.3337 22.5977C54.9203 22.5977 54.5541 22.5309 54.2351 22.3975C53.9161 22.264 53.6492 22.0768 53.4343 21.8359C53.2195 21.5918 53.0567 21.307 52.946 20.9814C52.8354 20.6527 52.78 20.2962 52.78 19.9121ZM54.4255 19.8096V19.9121C54.4255 20.1107 54.4402 20.2962 54.4695 20.4688C54.4988 20.6413 54.5476 20.7926 54.616 20.9229C54.6843 21.0498 54.7771 21.1491 54.8943 21.2207C55.0115 21.2923 55.158 21.3281 55.3337 21.3281C55.5063 21.3281 55.6495 21.2923 55.7634 21.2207C55.8806 21.1491 55.9734 21.0498 56.0417 20.9229C56.1101 20.7926 56.1589 20.6413 56.1882 20.4688C56.2175 20.2962 56.2322 20.1107 56.2322 19.9121V19.8096C56.2322 19.6175 56.2175 19.4368 56.1882 19.2676C56.1589 19.0951 56.1101 18.9437 56.0417 18.8135C55.9734 18.68 55.8806 18.5758 55.7634 18.501C55.6462 18.4261 55.4998 18.3887 55.324 18.3887C55.1514 18.3887 55.0066 18.4261 54.8894 18.501C54.7755 18.5758 54.6843 18.68 54.616 18.8135C54.5476 18.9437 54.4988 19.0951 54.4695 19.2676C54.4402 19.4368 54.4255 19.6175 54.4255 19.8096ZM60.2166 20.9277L61.1931 17.2168H62.2234L61.8572 19.0771L60.8904 22.5H60.0652L60.2166 20.9277ZM59.8308 17.2168L60.4363 20.8984L60.5046 22.5H59.5037L58.2537 17.2168H59.8308ZM63.0925 20.8203L63.7029 17.2168H65.28L64.0398 22.5H63.0388L63.0925 20.8203ZM62.3406 17.2168L63.3269 20.918L63.4783 22.5H62.6433L61.696 19.0869L61.3445 17.2168H62.3406ZM74.4597 18.8037V19.0918C74.4597 19.6354 74.3832 20.1237 74.2302 20.5566C74.0805 20.9863 73.8673 21.3542 73.5906 21.6602C73.3139 21.9629 72.9867 22.1956 72.6091 22.3584C72.2315 22.5179 71.8149 22.5977 71.3591 22.5977C70.9001 22.5977 70.4802 22.5179 70.0994 22.3584C69.7218 22.1956 69.393 21.9629 69.113 21.6602C68.8363 21.3542 68.6215 20.9863 68.4685 20.5566C68.3188 20.1237 68.2439 19.6354 68.2439 19.0918V18.8037C68.2439 18.2601 68.3188 17.7718 68.4685 17.3389C68.6215 16.9059 68.8347 16.5381 69.1082 16.2354C69.3848 15.9294 69.712 15.6966 70.0896 15.5371C70.4705 15.3743 70.8904 15.293 71.3494 15.293C71.8051 15.293 72.2218 15.3743 72.5994 15.5371C72.9802 15.6966 73.309 15.9294 73.5857 16.2354C73.8624 16.5381 74.0772 16.9059 74.2302 17.3389C74.3832 17.7718 74.4597 18.2601 74.4597 18.8037ZM72.7214 19.0918V18.7939C72.7214 18.4424 72.6905 18.1331 72.6287 17.8662C72.5701 17.596 72.4822 17.3698 72.365 17.1875C72.2478 17.0052 72.1029 16.8685 71.9304 16.7773C71.7611 16.6829 71.5675 16.6357 71.3494 16.6357C71.1215 16.6357 70.9229 16.6829 70.7537 16.7773C70.5844 16.8685 70.4428 17.0052 70.3289 17.1875C70.2149 17.3698 70.1287 17.596 70.0701 17.8662C70.0147 18.1331 69.9871 18.4424 69.9871 18.7939V19.0918C69.9871 19.4401 70.0147 19.7493 70.0701 20.0195C70.1287 20.2865 70.2149 20.5127 70.3289 20.6982C70.446 20.8838 70.5893 21.0238 70.7585 21.1182C70.9311 21.2126 71.1313 21.2598 71.3591 21.2598C71.5772 21.2598 71.7709 21.2126 71.9402 21.1182C72.1095 21.0238 72.2511 20.8838 72.365 20.6982C72.4822 20.5127 72.5701 20.2865 72.6287 20.0195C72.6905 19.7493 72.7214 19.4401 72.7214 19.0918ZM76.8865 18.3447V22.5H75.241V17.2168H76.7839L76.8865 18.3447ZM76.6912 19.6777L76.3054 19.6875C76.3054 19.2839 76.3542 18.9242 76.4519 18.6084C76.5496 18.2894 76.6879 18.0192 76.8669 17.7979C77.046 17.5765 77.2592 17.4089 77.5066 17.2949C77.7572 17.1777 78.0356 17.1191 78.3416 17.1191C78.5857 17.1191 78.8087 17.1549 79.0105 17.2266C79.2156 17.2982 79.3914 17.4137 79.5378 17.5732C79.6876 17.7327 79.8015 17.9443 79.8796 18.208C79.961 18.4684 80.0017 18.7907 80.0017 19.1748V22.5H78.3464V19.1699C78.3464 18.9583 78.3171 18.7972 78.2585 18.6865C78.2 18.5726 78.1153 18.4945 78.0046 18.4521C77.894 18.4098 77.7589 18.3887 77.5994 18.3887C77.4301 18.3887 77.2869 18.4212 77.1697 18.4863C77.0525 18.5514 76.9581 18.6426 76.8865 18.7598C76.8181 18.8737 76.7677 19.0088 76.7351 19.165C76.7058 19.3213 76.6912 19.4922 76.6912 19.6777Z" fill="#6B7A99"/>
<rect x="6.61694" y="4.5" width="84" height="30" rx="5" stroke="#F5F6F7" stroke-width="2"/>
</g>
<defs>
<filter id="filter0_d_4007_21306" x="0.616943" y="0.5" width="96" height="42" filterUnits="userSpaceOnUse" color-interpolation-filters="sRGB">
<feFlood flood-opacity="0" result="BackgroundImageFix"/>
<feColorMatrix in="SourceAlpha" type="matrix" values="0 0 0 0 0 0 0 0 0 0 0 0 0 0 0 0 0 0 127 0" result="hardAlpha"/>
<feOffset dy="2"/>
<feGaussianBlur stdDeviation="2.5"/>
<feColorMatrix type="matrix" values="0 0 0 0 0.14902 0 0 0 0 0.2 0 0 0 0 0.301961 0 0 0 0.03 0"/>
<feBlend mode="normal" in2="BackgroundImageFix" result="effect1_dropShadow_4007_21306"/>
<feBlend mode="normal" in="SourceGraphic" in2="effect1_dropShadow_4007_21306" result="shape"/>
</filter>
</defs>
</svg>
